<svg width="59" height="57" viewBox="0 0 59 57" fill="none" xmlns="http://www.w3.org/2000/svg">
<g id="Screwdriver-Wrench--Streamline-Flex-Gradient.svg" clip-path="url(#clip0_282_3196)">
<g id="screwdriver-wrench--tools-construction-tools-wrench-screwdriver-preferences-setting-edit-adjust">
<path id="Union" fill-rule="evenodd" clip-rule="evenodd" d="M7.90398 0.0453793C9.10416 -0.015206 10.1648 -0.0151196 11.365 0.045598C14.275 0.192819 16.529 2.49233 16.6458 5.26481C16.7289 7.24022 16.747 9.17615 16.6999 11.135C16.6366 13.7612 15.0956 16.1266 12.7951 17.2798V31.0665C12.9689 31.0779 13.1433 31.0902 13.3185 31.1035C16.4504 31.3407 18.7141 33.8323 18.9289 36.6822C19.0984 38.9305 19.2699 41.3254 19.2699 43.7894C19.2699 45.0601 19.2244 46.308 19.1575 47.525C18.9014 52.1786 15.1791 56.9593 9.76113 56.9992L9.63495 56.9996L9.50873 56.9992C4.09079 56.9593 0.36849 52.1786 0.112417 47.525C0.0454523 46.308 0 45.0601 0 43.7894C0 41.325 0.171482 38.9305 0.340942 36.6822C0.555755 33.8323 2.8195 31.3407 5.95133 31.1035C6.12614 31.0903 6.30023 31.078 6.47369 31.0666V17.2798C4.17322 16.1267 2.63217 13.7612 2.56896 11.135C2.52181 9.17598 2.53987 7.23994 2.62306 5.2644C2.73981 2.49194 4.99372 0.192283 7.90398 0.0453793ZM41.2207 56.9858C41.1446 56.9833 41.0683 56.9805 40.9918 56.978C40.9153 56.9805 40.8389 56.9833 40.7629 56.9858C40.3519 57 39.9479 57.0143 39.5519 56.9711C35.022 56.4805 31.9921 52.1733 31.754 48.1369C31.7381 47.867 31.7223 47.6064 31.7068 47.3503C31.5603 44.9294 31.4366 42.8848 31.4366 37.1804C31.4366 34.5148 31.5556 29.7032 31.6985 27.183C29.0962 26.1152 26.9817 24.5275 25.4822 22.4219C23.8036 20.0648 22.9841 17.1832 22.9841 13.9215C22.9841 10.5577 23.856 7.59916 25.64 5.20459C27.4252 2.80831 30.0241 1.1108 33.238 0.106423C34.7037 -0.351605 36.12 0.732625 36.12 2.13724C36.12 3.44402 36.0782 4.77933 36.0392 6.02384C36.0147 6.8058 35.9913 7.55303 35.9802 8.23365C35.9497 10.0962 36.003 11.6249 36.2691 12.8481C36.5305 14.0494 36.9589 14.7764 37.5398 15.2331C38.1248 15.693 39.1312 16.0881 40.9917 16.0881C42.8521 16.0881 43.8589 15.693 44.4438 15.2331C45.0246 14.7764 45.4532 14.0494 45.7145 12.8481C45.9804 11.6249 46.0339 10.0962 46.0036 8.23365C45.9922 7.55295 45.969 6.80617 45.9446 6.02413C45.9054 4.77961 45.8636 3.44401 45.8636 2.13726C45.8636 0.732642 47.2801 -0.351591 48.7454 0.106437C51.9596 1.11082 54.5586 2.80832 56.3437 5.20459C58.1276 7.59916 58.9996 10.5577 58.9996 13.9216C58.9996 17.1832 58.1799 20.0648 56.5013 22.4219C55.0019 24.5275 52.8876 26.1152 50.2853 27.183C50.4281 29.7032 50.547 34.5148 50.547 37.1804C50.547 42.8848 50.4231 44.9294 50.2768 47.3503C50.2612 47.6064 50.2457 47.867 50.2296 48.1369C49.9915 52.1733 46.9615 56.4805 42.4315 56.9711C42.0357 57.0143 41.6317 57 41.2207 56.9858Z" fill="url(#paint0_linear_282_3196)"/>
</g>
</g>
<defs>
<linearGradient id="paint0_linear_282_3196" x1="9.64228" y1="10.9603" x2="56.5114" y2="37.8384" gradientUnits="userSpaceOnUse">
<stop stop-color="#FFD600"/>
<stop offset="1" stop-color="#00D078"/>
</linearGradient>
<clipPath id="clip0_282_3196">
<rect width="59" height="57" fill="white"/>
</clipPath>
</defs>
</svg>
